<svg xmlns="http://www.w3.org/2000/svg" viewBox="0 0 1280 720" role="img" aria-labelledby="title desc">
  <title id="title">Inside the Weave workflow</title>
  <desc id="desc">Fallback cover for the Config 2026 Weave workflow session.</desc>
  <defs>
    <linearGradient id="bg" x1="0" x2="1" y1="0" y2="1">
      <stop offset="0" stop-color="#d8ff52"/>
      <stop offset="0.42" stop-color="#bfe9ff"/>
      <stop offset="1" stop-color="#7559ff"/>
    </linearGradient>
    <filter id="shadow" x="-20%" y="-20%" width="140%" height="140%">
      <feDropShadow dx="0" dy="18" stdDeviation="18" flood-color="#161616" flood-opacity=".22"/>
    </filter>
  </defs>
  <rect width="1280" height="720" fill="url(#bg)"/>
  <circle cx="1110" cy="90" r="180" fill="#fffdf7" opacity=".55"/>
  <circle cx="180" cy="610" r="230" fill="#ffd8eb" opacity=".65"/>
  <g filter="url(#shadow)">
    <rect x="110" y="98" width="1060" height="524" rx="54" fill="#fffdf7" stroke="#161616" stroke-width="8"/>
  </g>
  <g fill="none" stroke="#161616" stroke-width="10" stroke-linecap="round" stroke-linejoin="round">
    <path d="M265 382c112-154 250-154 362 0s250 154 388 0"/>
    <path d="M265 298c112 154 250 154 362 0s250-154 388 0"/>
  </g>
  <g fill="#161616">
    <circle cx="265" cy="382" r="22"/>
    <circle cx="627" cy="382" r="22"/>
    <circle cx="1015" cy="382" r="22"/>
    <circle cx="265" cy="298" r="22"/>
    <circle cx="627" cy="298" r="22"/>
    <circle cx="1015" cy="298" r="22"/>
  </g>
  <text x="160" y="210" fill="#161616" font-family="Inter, Arial, sans-serif" font-size="44" font-weight="800" letter-spacing="2">FIGMA CONFIG 2026</text>
  <text x="160" y="510" fill="#161616" font-family="Inter, Arial, sans-serif" font-size="84" font-weight="900" letter-spacing="-3">Inside the Weave workflow</text>
  <text x="160" y="565" fill="#4a453d" font-family="Inter, Arial, sans-serif" font-size="30" font-weight="700">AI creative workflow · branching · model chaining</text>
</svg>
